<svg xmlns="http://www.w3.org/2000/svg" version="1.1" xmlns:xlink="http://www.w3.org/1999/xlink" xmlns:svgjs="http://svgjs.com/svgjs" width="1440" height="560" preserveAspectRatio="none" viewBox="0 0 1440 560"><g mask="url(&quot;#SvgjsMask1002&quot;)" fill="none"><path d="M226.93 603.66C376.42 575.88 439.34 204.7 681.38 199.46 923.42 194.22 908.6 269.46 1135.82 269.46 1363.05 269.46 1475.32 199.66 1590.27 199.46" stroke="rgba(117, 239, 255, 0.5)" stroke-width="2"></path><path d="M712.3 576.88C839.34 557.3 906.54 253.76 1111.28 252.57 1316.03 251.38 1404.58 390.56 1510.27 392.57" stroke="rgba(117, 239, 255, 0.5)" stroke-width="2"></path><path d="M863.18 582.81C973.39 577.8 1036.94 402.01 1260.14 390.05 1483.34 378.09 1544.05 178.7 1657.1 171.65" stroke="rgba(117, 239, 255, 0.5)" stroke-width="2"></path><path d="M700.64 562.87C839.69 551.63 914.44 282.33 1176.68 271.7 1438.93 261.07 1527.87 122.3 1652.73 120.5" stroke="rgba(117, 239, 255, 0.5)" stroke-width="2"></path><path d="M846.33 580.22C931.97 558.09 874.36 342.63 1089.88 323.59 1305.41 304.55 1444.72 120.64 1576.99 116.39" stroke="rgba(117, 239, 255, 0.5)" stroke-width="2"></path></g><defs><mask id="SvgjsMask1002"><rect width="1440" height="560" fill="#ffffff"></rect></mask></defs></svg>